# xmcd
#
# Track frame offsets:
#	150
#	10221
#	20701
#	31802
#	42210
#	51626
#	60965
#	72092
#	85822
#	105301
#	113732
#	122378
#	132416
#	146570
#	159422
#	171120
#
# Disc length: 2412
#
# Revision: 2
# Processed by: cddbd v1.5.1PL0 Copyright (c) Steve Scherf et al.
# Submitted via: dBpowerAMP V4.0
# Normalized: r0:DSETVAR1,TDELIM( - ),TSWAP
#
DISCID=cb096a10
DTITLE=Various Artist - Country man volume 2
DYEAR=1999
DGENRE=Country
TTITLE0=Johnny Cash - Ballad Of A Teenage Queen
TTITLE1=Conway Twitty - It's Only Make Believe
TTITLE2=Waylon Jennings - Big Mamou
TTITLE3=Kenny Rogers - Good Time Liberator
TTITLE4=Freddy Fender - Let The Good Times Roll
TTITLE5=Conway Twitty - Ever Since You Went Away
TTITLE6=Johnny Cash - Cry Cry Cry
TTITLE7=Willie Nelson - Home Is Where You're Happy
TTITLE8=Kenny Rogers - Lay It Down
TTITLE9=Waylon Jennings - Abilene
TTITLE10=Conway Twitty - The Road That I Walk
TTITLE11=Freddy Fender - Wasted Days and Wasted Nights
TTITLE12=Willie Nelson - Face Of A Fighter
TTITLE13=Woody Guthrie - Poor Boy
TTITLE14=Waylon Jennings - Crying
TTITLE15=Kenny Rogers - Where Does Rosie Go
EXTD=Country man volume 2 ( 2 cd )
EXTT0=
EXTT1=
EXTT2=
EXTT3=
EXTT4=
EXTT5=
EXTT6=
EXTT7=
EXTT8=
EXTT9=
EXTT10=
EXTT11=
EXTT12=
EXTT13=
EXTT14=
EXTT15=
PLAYORDER=
